<svg width="30" height="26" viewBox="0 0 30 26" fill="none" xmlns="http://www.w3.org/2000/svg" xml:space="preserve"><path d="M29.1957 13.003C29.1957 11.0689 26.7736 9.23598 23.0602 8.09934C23.9171 4.31449 23.5363 1.30327 21.8581 0.339208C21.4713 0.113069 21.019 0.00595093 20.5251 0.00595093V1.33303C20.7988 1.33303 21.019 1.38659 21.2035 1.48775C22.0128 1.95193 22.3639 3.71939 22.0902 5.99268C22.0247 6.55207 21.9176 7.14122 21.7867 7.74228C20.6203 7.45663 19.3468 7.23644 18.0078 7.09361C17.2044 5.99268 16.3713 4.9929 15.5322 4.1181C17.4722 2.31495 19.2932 1.32708 20.531 1.32708V0C18.8945 0 16.7521 1.1664 14.5859 3.18975C12.4198 1.1783 10.2774 0.0238042 8.64088 0.0238042V1.35088C9.87274 1.35088 11.6997 2.3328 13.6397 4.12406C12.8066 4.99886 11.9734 5.99268 11.182 7.09361C9.83703 7.23644 8.56352 7.45663 7.39712 7.74823C7.26024 7.15312 7.15907 6.57587 7.08766 6.02243C6.80796 3.74914 7.15312 1.98169 7.95651 1.51156C8.13504 1.40444 8.36713 1.35683 8.64088 1.35683V0.0297551C8.14099 0.0297551 7.68871 0.136873 7.29595 0.363012C5.62371 1.32708 5.2488 4.33234 6.1117 8.10529C2.41016 9.24788 0 11.0748 0 13.003C0 14.9371 2.42206 16.77 6.1355 17.9066C5.27855 21.6915 5.65942 24.7027 7.33761 25.6667C7.72442 25.8929 8.1767 26 8.67659 26C10.3131 26 12.4555 24.8336 14.6217 22.8103C16.7878 24.8217 18.9302 25.9762 20.5667 25.9762C21.0666 25.9762 21.5189 25.8691 21.9116 25.6429C23.5839 24.6789 23.9588 21.6736 23.0959 17.9007C26.7855 16.764 29.1957 14.9311 29.1957 13.003ZM21.4475 9.03365C21.2273 9.80133 20.9535 10.5928 20.6441 11.3843C20.4001 10.9082 20.1442 10.4321 19.8645 9.95605C19.5908 9.47997 19.2992 9.01579 19.0076 8.56351C19.8526 8.68849 20.6679 8.84321 21.4475 9.03365ZM18.7219 15.3715C18.2577 16.1749 17.7816 16.9366 17.2877 17.6448C16.401 17.7221 15.5024 17.7638 14.5978 17.7638C13.6992 17.7638 12.8006 17.7221 11.9199 17.6507C11.426 16.9425 10.9439 16.1868 10.4797 15.3893C10.0275 14.6097 9.61685 13.8183 9.24193 13.0208C9.61089 12.2234 10.0275 11.426 10.4738 10.6464C10.938 9.84298 11.4141 9.08125 11.908 8.37308C12.7947 8.29572 13.6933 8.25406 14.5978 8.25406C15.4965 8.25406 16.3951 8.29572 17.2758 8.36713C17.7697 9.0753 18.2518 9.83108 18.716 10.6285C19.1682 11.4081 19.5788 12.1996 19.9538 12.997C19.5788 13.7945 19.1682 14.5919 18.7219 15.3715ZM20.6441 14.5978C20.9654 15.3953 21.2392 16.1927 21.4653 16.9664C20.6857 17.1568 19.8645 17.3175 19.0135 17.4424C19.3051 16.9842 19.5967 16.5141 19.8705 16.032C20.1442 15.556 20.4001 15.0739 20.6441 14.5978ZM14.6098 20.9476C14.0563 20.3763 13.5029 19.7395 12.9554 19.0433C13.491 19.0671 14.0385 19.0849 14.5919 19.0849C15.1513 19.0849 15.7047 19.073 16.2463 19.0433C15.7107 19.7395 15.1572 20.3763 14.6098 20.9476ZM10.1822 17.4424C9.33715 17.3175 8.52186 17.1627 7.74227 16.9723C7.96246 16.2046 8.23621 15.4131 8.54566 14.6217C8.78965 15.0977 9.04555 15.5738 9.32525 16.0499C9.60494 16.526 9.89059 16.9902 10.1822 17.4424ZM14.58 5.05837C15.1334 5.62966 15.6869 6.26642 16.2344 6.96269C15.6988 6.93889 15.1513 6.92103 14.5978 6.92103C14.0385 6.92103 13.485 6.93294 12.9435 6.96269C13.4791 6.26642 14.0325 5.62966 14.58 5.05837ZM10.1762 8.56351C9.88464 9.02174 9.59304 9.49187 9.31929 9.97391C9.04555 10.45 8.78965 10.9261 8.54566 11.4022C8.22431 10.6047 7.95056 9.80728 7.72442 9.03365C8.50401 8.84916 9.32525 8.68849 10.1762 8.56351ZM4.79057 16.0142C2.68391 15.1156 1.32113 13.9373 1.32113 13.003C1.32113 12.0687 2.68391 10.8844 4.79057 9.99176C5.30236 9.77157 5.86175 9.57519 6.439 9.39071C6.77821 10.5571 7.22454 11.7711 7.77798 13.0149C7.23049 14.2527 6.79011 15.4607 6.45686 16.6212C5.8677 16.4367 5.30831 16.2344 4.79057 16.0142ZM7.99222 24.5182C7.18288 24.054 6.83177 22.2866 7.10552 20.0133C7.17098 19.4539 7.2781 18.8647 7.40902 18.2637C8.57542 18.5493 9.84894 18.7695 11.1879 18.9123C11.9913 20.0133 12.8244 21.013 13.6635 21.8878C11.7235 23.691 9.90249 24.6789 8.66468 24.6789C8.39689 24.6729 8.17075 24.6194 7.99222 24.5182ZM22.108 19.9835C22.3877 22.2568 22.0426 24.0243 21.2392 24.4944C21.0607 24.6015 20.8286 24.6491 20.5548 24.6491C19.323 24.6491 17.496 23.6672 15.556 21.8759C16.3891 21.0011 17.2222 20.0073 18.0137 18.9064C19.3587 18.7636 20.6322 18.5434 21.7986 18.2518C21.9355 18.8528 22.0426 19.4301 22.108 19.9835ZM24.3992 16.0142C23.8874 16.2344 23.328 16.4308 22.7507 16.6152C22.4115 15.4488 21.9652 14.2348 21.4118 12.9911C21.9593 11.7533 22.3996 10.5452 22.7329 9.38476C23.322 9.56924 23.8814 9.77157 24.4051 9.99176C26.5118 10.8904 27.8746 12.0687 27.8746 13.003C27.8686 13.9373 26.5058 15.1215 24.3992 16.0142Z" fill="#61DAFB"></path><path d="M14.5907 15.7224C16.0927 15.7224 17.3103 14.5048 17.3103 13.0028C17.3103 11.5008 16.0927 10.2832 14.5907 10.2832C13.0887 10.2832 11.8711 11.5008 11.8711 13.0028C11.8711 14.5048 13.0887 15.7224 14.5907 15.7224Z" fill="#61DAFB"></path></svg>